<svg width="35" height="34" viewBox="0 0 35 34" fill="none" xmlns="http://www.w3.org/2000/svg">
<path d="M28.7673 29.3839V26.5997C28.7673 25.1228 28.1806 23.7064 27.1363 22.6621C26.092 21.6178 24.6756 21.0311 23.1988 21.0311H21.8066C21.4374 21.0311 21.0833 20.8844 20.8222 20.6234C20.5612 20.3623 20.4145 20.0082 20.4145 19.639V12.6783C20.4145 11.9398 20.1211 11.2316 19.599 10.7095C19.0768 10.1873 18.3687 9.894 17.6302 9.894C16.8918 9.894 16.1836 10.1873 15.6614 10.7095C15.1393 11.2316 14.8459 11.9398 14.8459 12.6783V25.2075L11.5048 20.7527C11.2455 20.4069 10.9092 20.1262 10.5225 19.9329C10.1359 19.7396 9.70963 19.639 9.27738 19.639H8.67319C7.46899 19.639 6.4931 20.6149 6.4931 21.8191C6.4931 22.2144 6.6003 22.6028 6.80355 22.9411L10.6695 29.3839M17.6302 5.71758V4.32544V5.71758ZM25.983 14.0704H27.3752H25.983ZM7.88524 14.0704H9.27738H7.88524ZM11.147 7.58722L10.1628 6.60298L11.147 7.58722ZM24.1134 7.58722L25.0976 6.60298L24.1134 7.58722Z" fill="#4CAF4F"/>
<path d="M28.7673 29.3839V26.5997C28.7673 25.1228 28.1806 23.7064 27.1363 22.6621C26.092 21.6178 24.6756 21.0311 23.1988 21.0311H21.8066C21.4374 21.0311 21.0833 20.8844 20.8222 20.6234C20.5612 20.3623 20.4145 20.0082 20.4145 19.639V12.6783C20.4145 11.9398 20.1211 11.2316 19.599 10.7095C19.0768 10.1873 18.3687 9.894 17.6302 9.894V9.894C16.8918 9.894 16.1836 10.1873 15.6614 10.7095C15.1393 11.2316 14.8459 11.9398 14.8459 12.6783V25.2075L11.5048 20.7527C11.2455 20.4069 10.9092 20.1262 10.5225 19.9329C10.1359 19.7396 9.70963 19.639 9.27738 19.639H8.67319C7.46899 19.639 6.4931 20.6149 6.4931 21.8191C6.4931 22.2144 6.6003 22.6028 6.80355 22.9411L10.6695 29.3839M17.6302 5.71758V4.32544M25.983 14.0704H27.3752M7.88524 14.0704H9.27738M11.147 7.58722L10.1628 6.60298M24.1134 7.58722L25.0976 6.60298" stroke="#4CAF4F" stroke-width="1.39214" stroke-linecap="round" stroke-linejoin="round"/>
</svg>

