<svg width="34" height="34" viewBox="0 0 34 34" fill="none" xmlns="http://www.w3.org/2000/svg">
<mask id="path-1-inside-1_211_2338" fill="white">
<path d="M20.0111 16.7647C19.8435 16.7647 19.6879 16.7186 19.5496 16.6445V16.6464C19.5496 16.9101 19.4471 17.1578 19.2612 17.3433C19.0752 17.5292 18.8277 17.6317 18.5643 17.6317C18.3943 17.6317 18.2367 17.5845 18.097 17.5084C18.0828 17.7496 17.9864 17.9751 17.8144 18.1473C17.6284 18.3333 17.381 18.4358 17.1174 18.4358C16.5938 18.4358 16.1685 18.0242 16.1379 17.5082C15.9759 17.5958 15.7927 17.6417 15.6037 17.6296C15.0886 17.5958 14.6852 17.1507 14.6852 16.6161V12.1845L14.1806 13.0587C13.9884 13.3931 13.6286 13.6007 13.2412 13.6007C13.0525 13.6007 12.866 13.5512 12.7009 13.4565C12.4952 13.3373 12.3481 13.1459 12.287 12.917C12.2255 12.6879 12.2573 12.4483 12.3762 12.243C12.3763 12.243 14.0273 9.38408 14.128 9.20847C14.1399 9.18206 14.1741 9.10548 14.2031 9.04021C14.2308 8.97789 14.2546 8.91394 14.2774 8.84965C14.7752 7.44409 16.008 6.57099 17.4947 6.57099C19.4254 6.57099 20.9961 8.2742 20.9961 10.3678L20.9963 15.7793C20.9963 16.0426 20.894 16.2901 20.7082 16.4762C20.5222 16.6622 20.2747 16.7647 20.0111 16.7647L20.0111 16.7647ZM17.4948 7.09453C16.2172 7.09453 15.199 7.81612 14.7708 9.02474C14.7435 9.10149 14.7149 9.17824 14.6816 9.25302C14.585 9.46965 14.585 9.46965 14.5578 9.50081L14.5542 9.49769C14.4194 9.75205 14.0189 10.4456 12.8295 12.505C12.7806 12.5895 12.7677 12.6875 12.7926 12.7813C12.8179 12.8751 12.8784 12.9542 12.9622 13.0025C13.2223 13.1519 13.5785 13.0555 13.7267 12.7972L14.7203 11.0769C14.7797 10.9744 14.8997 10.9241 15.0149 10.9552C15.1293 10.9859 15.2089 11.0897 15.2089 11.2081V16.6163C15.2089 16.8714 15.4014 17.0917 15.6381 17.1072C15.7745 17.1145 15.9018 17.0687 15.9974 16.9733C16.0843 16.8863 16.1322 16.7706 16.1322 16.6467V13.1098C16.1322 12.9651 16.2494 12.8479 16.3941 12.8479C16.5387 12.8479 16.656 12.965 16.656 13.1098L16.6558 17.4507C16.6558 17.7052 16.8629 17.9123 17.1174 17.9123C17.2411 17.9123 17.3572 17.8645 17.4443 17.7775C17.5312 17.6905 17.5791 17.5744 17.5791 17.4507V13.1098C17.5791 12.9651 17.6962 12.8479 17.841 12.8479C17.9856 12.8479 18.1029 12.9649 18.1029 13.1098L18.1027 16.6061V16.6467C18.1027 16.9011 18.3098 17.1082 18.5645 17.1082C18.688 17.1082 18.8038 17.0602 18.8913 16.9729C18.9783 16.8862 19.0261 16.7704 19.0261 16.6466V13.1096C19.0261 12.9649 19.1432 12.8477 19.288 12.8477C19.4327 12.8477 19.5499 12.9648 19.5499 13.1096L19.5496 15.7794C19.5496 16.0341 19.7567 16.2412 20.0111 16.2412C20.1349 16.2412 20.2507 16.1931 20.3376 16.1064C20.4248 16.0191 20.4725 15.903 20.4725 15.7794L20.4727 10.3679C20.4727 8.56316 19.1368 7.09458 17.4947 7.09458L17.4948 7.09453Z"/>
</mask>
<path d="M20.0111 16.7647C19.8435 16.7647 19.6879 16.7186 19.5496 16.6445V16.6464C19.5496 16.9101 19.4471 17.1578 19.2612 17.3433C19.0752 17.5292 18.8277 17.6317 18.5643 17.6317C18.3943 17.6317 18.2367 17.5845 18.097 17.5084C18.0828 17.7496 17.9864 17.9751 17.8144 18.1473C17.6284 18.3333 17.381 18.4358 17.1174 18.4358C16.5938 18.4358 16.1685 18.0242 16.1379 17.5082C15.9759 17.5958 15.7927 17.6417 15.6037 17.6296C15.0886 17.5958 14.6852 17.1507 14.6852 16.6161V12.1845L14.1806 13.0587C13.9884 13.3931 13.6286 13.6007 13.2412 13.6007C13.0525 13.6007 12.866 13.5512 12.7009 13.4565C12.4952 13.3373 12.3481 13.1459 12.287 12.917C12.2255 12.6879 12.2573 12.4483 12.3762 12.243C12.3763 12.243 14.0273 9.38408 14.128 9.20847C14.1399 9.18206 14.1741 9.10548 14.2031 9.04021C14.2308 8.97789 14.2546 8.91394 14.2774 8.84965C14.7752 7.44409 16.008 6.57099 17.4947 6.57099C19.4254 6.57099 20.9961 8.2742 20.9961 10.3678L20.9963 15.7793C20.9963 16.0426 20.894 16.2901 20.7082 16.4762C20.5222 16.6622 20.2747 16.7647 20.0111 16.7647L20.0111 16.7647ZM17.4948 7.09453C16.2172 7.09453 15.199 7.81612 14.7708 9.02474C14.7435 9.10149 14.7149 9.17824 14.6816 9.25302C14.585 9.46965 14.585 9.46965 14.5578 9.50081L14.5542 9.49769C14.4194 9.75205 14.0189 10.4456 12.8295 12.505C12.7806 12.5895 12.7677 12.6875 12.7926 12.7813C12.8179 12.8751 12.8784 12.9542 12.9622 13.0025C13.2223 13.1519 13.5785 13.0555 13.7267 12.7972L14.7203 11.0769C14.7797 10.9744 14.8997 10.9241 15.0149 10.9552C15.1293 10.9859 15.2089 11.0897 15.2089 11.2081V16.6163C15.2089 16.8714 15.4014 17.0917 15.6381 17.1072C15.7745 17.1145 15.9018 17.0687 15.9974 16.9733C16.0843 16.8863 16.1322 16.7706 16.1322 16.6467V13.1098C16.1322 12.9651 16.2494 12.8479 16.3941 12.8479C16.5387 12.8479 16.656 12.965 16.656 13.1098L16.6558 17.4507C16.6558 17.7052 16.8629 17.9123 17.1174 17.9123C17.2411 17.9123 17.3572 17.8645 17.4443 17.7775C17.5312 17.6905 17.5791 17.5744 17.5791 17.4507V13.1098C17.5791 12.9651 17.6962 12.8479 17.841 12.8479C17.9856 12.8479 18.1029 12.9649 18.1029 13.1098L18.1027 16.6061V16.6467C18.1027 16.9011 18.3098 17.1082 18.5645 17.1082C18.688 17.1082 18.8038 17.0602 18.8913 16.9729C18.9783 16.8862 19.0261 16.7704 19.0261 16.6466V13.1096C19.0261 12.9649 19.1432 12.8477 19.288 12.8477C19.4327 12.8477 19.5499 12.9648 19.5499 13.1096L19.5496 15.7794C19.5496 16.0341 19.7567 16.2412 20.0111 16.2412C20.1349 16.2412 20.2507 16.1931 20.3376 16.1064C20.4248 16.0191 20.4725 15.903 20.4725 15.7794L20.4727 10.3679C20.4727 8.56316 19.1368 7.09458 17.4947 7.09458L17.4948 7.09453Z" fill="#4CAF4F"/>
<path d="M20.0111 16.7647V15.8366H23.2901L20.4975 17.5551L20.0111 16.7647ZM19.5496 16.6445H18.6215V15.0937L19.9882 15.8265L19.5496 16.6445ZM19.2612 17.3433L18.6049 16.687L18.6058 16.6861L19.2612 17.3433ZM18.097 17.5084L17.1704 17.4542L17.2558 15.9936L18.5408 16.6933L18.097 17.5084ZM17.8144 18.1473L18.471 18.8032L18.4707 18.8036L17.8144 18.1473ZM16.1379 17.5082L15.6966 16.6918L16.978 15.9992L17.0643 17.4532L16.1379 17.5082ZM15.6037 17.6296L15.5442 18.5558L15.543 18.5557L15.6037 17.6296ZM14.6852 12.1845L13.8814 11.7205L15.6133 8.7201V12.1845H14.6852ZM14.1806 13.0587L13.3759 12.5962L13.3768 12.5947L14.1806 13.0587ZM12.7009 13.4565L12.2395 14.2618L12.2354 14.2595L12.7009 13.4565ZM12.287 12.917L13.1833 12.6764L13.1836 12.6774L12.287 12.917ZM12.3762 12.243L11.573 11.7779L11.8411 11.3149H12.3762V12.243ZM14.128 9.20847L14.9732 9.59172L14.955 9.63191L14.9331 9.67019L14.128 9.20847ZM14.2031 9.04021L13.3551 8.66308L13.3551 8.66307L14.2031 9.04021ZM14.2774 8.84965L15.1522 9.15953L15.1521 9.15978L14.2774 8.84965ZM20.9961 10.3678L20.068 10.3678V10.3678H20.9961ZM20.9963 15.7793L21.9244 15.7792V15.7793H20.9963ZM20.7082 16.4762L21.365 17.1319L21.3644 17.1325L20.7082 16.4762ZM20.0111 16.7647V17.6928H16.7321L19.5246 15.9743L20.0111 16.7647ZM17.4948 7.09453V6.16644H18.7252L18.3871 7.3495L17.4948 7.09453ZM14.7708 9.02474L15.6457 9.33466L15.6449 9.33666L14.7708 9.02474ZM14.6816 9.25302L15.5295 9.63047L15.5293 9.63096L14.6816 9.25302ZM14.5578 9.50081L15.2567 10.1115L14.6496 10.8063L13.9512 10.2032L14.5578 9.50081ZM14.5542 9.49769L13.7342 9.06309L14.2795 8.03413L15.1608 8.79529L14.5542 9.49769ZM12.8295 12.505L13.6332 12.9692L13.6328 12.9698L12.8295 12.505ZM12.7926 12.7813L11.8964 13.0226L11.8956 13.0197L12.7926 12.7813ZM12.9622 13.0025L12.4999 13.8073L12.4982 13.8063L12.9622 13.0025ZM13.7267 12.7972L12.9218 12.3352L12.923 12.333L13.7267 12.7972ZM14.7203 11.0769L13.9167 10.6127L13.9172 10.6118L14.7203 11.0769ZM15.0149 10.9552L14.7747 11.8517L14.7724 11.8511L15.0149 10.9552ZM15.6381 17.1072L15.589 18.0341L15.5771 18.0333L15.6381 17.1072ZM15.9974 16.9733L16.6536 17.6295L16.653 17.6301L15.9974 16.9733ZM16.656 13.1098H17.584V13.1098L16.656 13.1098ZM16.6558 17.4507H15.7277V17.4507L16.6558 17.4507ZM17.4443 17.7775L18.1011 18.4332L18.0999 18.4344L17.4443 17.7775ZM18.1029 13.1098H19.031V13.1098L18.1029 13.1098ZM18.1027 16.6061H17.1746V16.606L18.1027 16.6061ZM18.8913 16.9729L19.547 17.6298L19.5464 17.6304L18.8913 16.9729ZM19.5499 13.1096H20.478V13.1097L19.5499 13.1096ZM19.5496 15.7794H18.6215V15.7793L19.5496 15.7794ZM20.3376 16.1064L20.9938 16.7626L20.9932 16.7633L20.3376 16.1064ZM20.4725 15.7794H19.5444V15.7793L20.4725 15.7794ZM20.4727 10.3679H21.4008V10.3679L20.4727 10.3679ZM17.4947 7.09458V8.02268H16.2643L16.6024 6.83962L17.4947 7.09458ZM20.0111 17.6928C19.6693 17.6928 19.3642 17.5982 19.111 17.4624L19.9882 15.8265C20.0002 15.833 20.0078 15.8354 20.0108 15.8362C20.0134 15.8369 20.0131 15.8366 20.0111 15.8366V17.6928ZM20.4777 16.6445V16.6464H18.6215V16.6445H20.4777ZM20.4777 16.6464C20.4777 17.1555 20.2779 17.64 19.9165 18.0004L18.6058 16.6861C18.6124 16.6795 18.6157 16.6738 18.6176 16.6692C18.6195 16.6646 18.6215 16.6574 18.6215 16.6464H20.4777ZM19.9174 17.9995C19.5572 18.3597 19.0737 18.5598 18.5643 18.5598V16.7036C18.575 16.7036 18.582 16.7017 18.5868 16.6997C18.5915 16.6978 18.5976 16.6943 18.6049 16.687L19.9174 17.9995ZM18.5643 18.5598C18.2181 18.5598 17.9092 18.463 17.6531 18.3235L18.5408 16.6933C18.5529 16.6999 18.5606 16.7024 18.5636 16.7032C18.5662 16.704 18.566 16.7036 18.5643 16.7036V18.5598ZM19.0235 17.5626C18.9968 18.0194 18.8114 18.4624 18.471 18.8032L17.1578 17.4914C17.1612 17.488 17.1632 17.4849 17.1649 17.4811C17.1667 17.4769 17.1696 17.4684 17.1704 17.4542L19.0235 17.5626ZM18.4707 18.8036C18.1104 19.1638 17.6268 19.3639 17.1174 19.3639V17.5077C17.1282 17.5077 17.1353 17.5057 17.14 17.5038C17.1448 17.5018 17.1509 17.4983 17.1581 17.4911L18.4707 18.8036ZM17.1174 19.3639C16.0928 19.3639 15.2706 18.5597 15.2114 17.5633L17.0643 17.4532C17.0653 17.469 17.0717 17.4828 17.0832 17.4937C17.0887 17.4991 17.0944 17.5025 17.0993 17.5045C17.1036 17.5062 17.1091 17.5077 17.1174 17.5077V19.3639ZM16.5792 18.3247C16.2794 18.4867 15.9239 18.5802 15.5442 18.5558L15.6632 16.7034C15.6633 16.7034 15.6652 16.7036 15.6701 16.7025C15.6754 16.7012 15.6844 16.6983 15.6966 16.6918L16.5792 18.3247ZM15.543 18.5557C14.5125 18.4881 13.7571 17.6118 13.7571 16.6161H15.6133C15.6133 16.6475 15.6247 16.6716 15.639 16.6874C15.6529 16.7028 15.6624 16.7034 15.6645 16.7035L15.543 18.5557ZM13.7571 16.6161V12.1845H15.6133V16.6161H13.7571ZM15.489 12.6484L14.9844 13.5227L13.3768 12.5947L13.8814 11.7205L15.489 12.6484ZM14.9852 13.5212C14.6266 14.1451 13.9591 14.5288 13.2412 14.5288V12.6726C13.2981 12.6726 13.3502 12.641 13.3759 12.5962L14.9852 13.5212ZM13.2412 14.5288C12.8903 14.5288 12.5448 14.4368 12.2395 14.2618L13.1623 12.6513C13.1873 12.6656 13.2147 12.6726 13.2412 12.6726V14.5288ZM12.2354 14.2595C11.8187 14.0179 11.5154 13.6248 11.3903 13.1566L13.1836 12.6774C13.1828 12.6743 13.1805 12.6687 13.176 12.6628C13.1715 12.6571 13.1674 12.6542 13.1664 12.6536L12.2354 14.2595ZM11.3906 13.1576C11.265 12.6897 11.3308 12.1963 11.573 11.7779L13.1794 12.708C13.1807 12.7057 13.183 12.7005 13.184 12.693C13.185 12.6854 13.1841 12.6794 13.1833 12.6764L11.3906 13.1576ZM12.3762 11.3149C11.9209 11.4342 11.5802 11.7658 11.5776 11.7701C11.5768 11.7715 11.5755 11.7737 11.5751 11.7743C11.5749 11.7747 11.5745 11.7754 11.5743 11.7756C11.5743 11.7758 11.5741 11.7761 11.574 11.7761C11.5739 11.7764 11.574 11.7763 11.5743 11.7757C11.5749 11.7746 11.576 11.7728 11.5775 11.7701C11.5806 11.7648 11.5852 11.7569 11.5912 11.7465C11.6033 11.7255 11.6211 11.6948 11.6437 11.6556C11.6891 11.5771 11.7539 11.4648 11.8321 11.3294C11.9885 11.0586 12.198 10.6958 12.4106 10.3275C12.8366 9.58965 13.2734 8.833 13.3229 8.74674L14.9331 9.67019C14.8818 9.75954 14.4428 10.5201 14.0181 11.2556C13.8054 11.624 13.5959 11.9869 13.4395 12.2577C13.3613 12.3931 13.2964 12.5055 13.251 12.584C13.2283 12.6233 13.2105 12.6541 13.1983 12.6752C13.1923 12.6857 13.1876 12.6939 13.1843 12.6994C13.1828 12.7022 13.1814 12.7044 13.1805 12.7061C13.18 12.7069 13.1795 12.7078 13.1789 12.7088C13.1787 12.7091 13.1781 12.7101 13.1774 12.7113C13.177 12.7121 13.1757 12.7143 13.1748 12.7158C13.1722 12.7201 12.8314 13.0517 12.3762 13.1711V11.3149ZM13.2827 8.82521C13.2929 8.80268 13.3253 8.73003 13.3551 8.66308L15.0511 9.41734C15.0228 9.48093 14.987 9.56145 14.9732 9.59172L13.2827 8.82521ZM13.3551 8.66307C13.368 8.63407 13.3822 8.59701 13.4026 8.53952L15.1521 9.15978C15.1269 9.23087 15.0936 9.32172 15.0511 9.41735L13.3551 8.66307ZM13.4025 8.53977C14.0311 6.76516 15.6133 5.64289 17.4947 5.64289V7.49908C16.4027 7.49908 15.5193 8.12302 15.1522 9.15953L13.4025 8.53977ZM17.4947 5.64289C20.0073 5.64289 21.9242 7.83383 21.9242 10.3678H20.068C20.068 8.71457 18.8435 7.49908 17.4947 7.49908V5.64289ZM21.9242 10.3677L21.9244 15.7792L20.0682 15.7793L20.068 10.3678L21.9242 10.3677ZM21.9244 15.7793C21.9244 16.2882 21.7247 16.7715 21.365 17.1319L20.0513 15.8206C20.0586 15.8132 20.0622 15.807 20.0642 15.8021C20.0662 15.7972 20.0682 15.7901 20.0682 15.7793H21.9244ZM21.3644 17.1325C21.0042 17.4928 20.5205 17.6928 20.0111 17.6928V15.8366C20.022 15.8366 20.0291 15.8346 20.0338 15.8327C20.0386 15.8307 20.0447 15.8272 20.0519 15.82L21.3644 17.1325ZM19.5246 15.9743L19.5247 15.9743L20.4975 17.5551L20.4975 17.5551L19.5246 15.9743ZM17.4948 8.02262C16.6124 8.02262 15.9432 8.49467 15.6457 9.33466L13.896 8.71482C14.4548 7.13757 15.8221 6.16644 17.4948 6.16644V8.02262ZM15.6449 9.33666C15.6157 9.41876 15.5776 9.52244 15.5295 9.63047L13.8338 8.87556C13.8522 8.83403 13.8713 8.78422 13.8967 8.71282L15.6449 9.33666ZM15.5293 9.63096C15.4868 9.72629 15.4512 9.80679 15.4239 9.86131C15.407 9.89516 15.3796 9.94731 15.3399 10.0051C15.2997 10.0636 15.2599 10.1078 15.2567 10.1115L13.8589 8.89016C13.8611 8.88766 13.8604 8.88847 13.8593 8.88975C13.8579 8.8914 13.8543 8.8956 13.8495 8.90137C13.8446 8.90735 13.8384 8.91507 13.8315 8.92424C13.8245 8.9335 13.8173 8.94335 13.8102 8.95374C13.7956 8.9749 13.7845 8.99343 13.7765 9.00745C13.7691 9.02053 13.7645 9.02959 13.7635 9.03163C13.7624 9.03373 13.7631 9.03249 13.7662 9.02574C13.7693 9.0192 13.7736 9.00978 13.7798 8.99606C13.786 8.98247 13.7934 8.96605 13.8024 8.94576C13.8115 8.9255 13.8218 8.90228 13.834 8.87507L15.5293 9.63096ZM13.9512 10.2032L13.9476 10.2001L15.1608 8.79529L15.1644 8.79841L13.9512 10.2032ZM15.3743 9.9323C15.229 10.2064 14.8143 10.9241 13.6332 12.9692L12.0258 12.0408C13.2236 9.96703 13.6098 9.29772 13.7342 9.06309L15.3743 9.9323ZM13.6328 12.9698C13.7071 12.8415 13.7278 12.6867 13.6896 12.5429L11.8956 13.0197C11.8076 12.6884 11.8542 12.3374 12.0262 12.0402L13.6328 12.9698ZM13.6888 12.54C13.6506 12.3982 13.5567 12.2741 13.4262 12.1988L12.4982 13.8063C12.2 13.6342 11.9851 13.3521 11.8964 13.0226L13.6888 12.54ZM13.4244 12.1978C13.3188 12.1371 13.216 12.1375 13.1451 12.1566C13.0744 12.1756 12.9838 12.2272 12.9218 12.3352L14.5316 13.2592C14.1272 13.964 13.2028 14.2111 12.4999 13.8073L13.4244 12.1978ZM12.923 12.333L13.9167 10.6127L15.524 11.5411L14.5304 13.2614L12.923 12.333ZM13.9172 10.6118C14.1853 10.1489 14.7325 9.91733 15.2573 10.0594L14.7724 11.8511C15.067 11.9308 15.3741 11.7999 15.5234 11.5421L13.9172 10.6118ZM15.255 10.0588C15.7757 10.1983 16.137 10.6701 16.137 11.2081H14.2808C14.2808 11.5093 14.483 11.7736 14.7747 11.8517L15.255 10.0588ZM16.137 11.2081V16.6163H14.2808V11.2081H16.137ZM16.137 16.6163C16.137 16.5105 16.0978 16.4144 16.0335 16.3408C15.9693 16.2673 15.8559 16.1915 15.699 16.1811L15.5771 18.0333C14.7958 17.9819 14.2808 17.3013 14.2808 16.6163H16.137ZM15.6871 16.1804C15.5774 16.1746 15.4435 16.2148 15.3417 16.3164L16.653 17.6301C16.36 17.9226 15.9716 18.0543 15.589 18.034L15.6871 16.1804ZM15.3411 16.317C15.253 16.4051 15.2041 16.5257 15.2041 16.6467H17.0603C17.0603 17.0154 16.9155 17.3676 16.6536 17.6295L15.3411 16.317ZM15.2041 16.6467V13.1098H17.0603V16.6467H15.2041ZM15.2041 13.1098C15.2041 12.4525 15.7368 11.9198 16.3941 11.9198V13.776C16.762 13.776 17.0603 13.4777 17.0603 13.1098H15.2041ZM16.3941 11.9198C17.0509 11.9198 17.584 12.452 17.584 13.1098H15.7279C15.7279 13.4779 16.0265 13.776 16.3941 13.776V11.9198ZM17.584 13.1098L17.5839 17.4507L15.7277 17.4507L15.7279 13.1097L17.584 13.1098ZM17.5839 17.4507C17.5839 17.1926 17.3755 16.9842 17.1174 16.9842V18.8404C16.3503 18.8404 15.7277 18.2178 15.7277 17.4507H17.5839ZM17.1174 16.9842C16.9966 16.9842 16.8765 17.0329 16.7886 17.1206L18.0999 18.4344C17.8378 18.696 17.4855 18.8404 17.1174 18.8404V16.9842ZM16.7874 17.1219C16.6996 17.2098 16.651 17.3299 16.651 17.4507H18.5072C18.5072 17.8188 18.3627 18.1711 18.1011 18.4332L16.7874 17.1219ZM16.651 17.4507V13.1098H18.5072V17.4507H16.651ZM16.651 13.1098C16.651 12.4529 17.1832 11.9198 17.841 11.9198V13.7759C18.2091 13.7759 18.5072 13.4773 18.5072 13.1098H16.651ZM17.841 11.9198C18.4978 11.9198 19.031 12.452 19.031 13.1098H17.1748C17.1748 13.4779 17.4734 13.7759 17.841 13.7759V11.9198ZM19.031 13.1098L19.0308 16.6061L17.1746 16.606L17.1748 13.1097L19.031 13.1098ZM19.0308 16.6061V16.6467H17.1746V16.6061H19.0308ZM19.0308 16.6467C19.0308 16.3881 18.8219 16.1801 18.5645 16.1801V18.0363C17.7977 18.0363 17.1746 17.4141 17.1746 16.6467H19.0308ZM18.5645 16.1801C18.4412 16.1801 18.3218 16.2303 18.2363 16.3154L19.5464 17.6304C19.2857 17.89 18.9348 18.0363 18.5645 18.0363V16.1801ZM18.2357 16.316C18.1469 16.4046 18.098 16.5257 18.098 16.6466H19.9542C19.9542 17.015 19.8096 17.3677 19.547 17.6298L18.2357 16.316ZM18.098 16.6466V13.1096H19.9542V16.6466H18.098ZM18.098 13.1096C18.098 12.4527 18.6303 11.9196 19.288 11.9196V13.7758C19.6562 13.7758 19.9542 13.4771 19.9542 13.1096H18.098ZM19.288 11.9196C19.9449 11.9196 20.478 12.4518 20.478 13.1096H18.6218C18.6218 13.4777 18.9205 13.7758 19.288 13.7758V11.9196ZM20.478 13.1097L20.4777 15.7795L18.6215 15.7793L18.6218 13.1095L20.478 13.1097ZM20.4777 15.7794C20.4777 15.5219 20.2697 15.3131 20.0111 15.3131V17.1693C19.2437 17.1693 18.6215 16.5462 18.6215 15.7794H20.4777ZM20.0111 15.3131C19.8893 15.3131 19.7692 15.3624 19.6819 15.4495L20.9932 16.7633C20.7321 17.0239 20.3804 17.1693 20.0111 17.1693V15.3131ZM19.6813 15.4501C19.5929 15.5385 19.5444 15.6591 19.5444 15.7794H21.4006C21.4006 16.1469 21.2567 16.4998 20.9938 16.7626L19.6813 15.4501ZM19.5444 15.7793L19.5446 10.3679L21.4008 10.3679L21.4006 15.7794L19.5444 15.7793ZM19.5446 10.3679C19.5446 8.99115 18.5436 8.02268 17.4947 8.02268V6.16649C19.7301 6.16649 21.4008 8.13517 21.4008 10.3679H19.5446ZM16.6024 6.83962L16.6024 6.83956L18.3871 7.3495L18.3871 7.34955L16.6024 6.83962Z" fill="#4CAF4F" mask="url(#path-1-inside-1_211_2338)"/>
<path d="M9.79248 18.1705L9.79244 18.1706L9.79248 18.1705ZM9.79248 18.1705C9.65586 18.0947 9.50778 18.0588 9.36183 18.0588C9.11751 18.0587 8.879 18.1594 8.70912 18.3427L9.79248 18.1705ZM7.05586 22.2248L7.05584 22.2248L7.05586 22.2248ZM15.8121 23.6906C15.8122 23.6905 15.8122 23.6905 15.8123 23.6905L15.8121 23.6906ZM15.8123 23.6905C15.9325 23.6182 16.0159 23.5056 16.0499 23.3699C16.0499 23.3699 16.0499 23.3699 16.0499 23.3699L15.9925 23.3555L16.0499 23.3698C16.0837 23.2342 16.0631 23.0959 15.9908 22.9754L15.8123 23.6905ZM15.9364 20.0143L15.9368 20.0144L15.9364 20.0143ZM8.48083 18.7013C8.49103 18.683 8.50057 18.6658 8.5094 18.6499C8.54507 18.5856 8.56921 18.5421 8.57891 18.5246L8.63167 18.5524C8.59908 18.6112 8.5671 18.6688 8.53573 18.7253C8.51736 18.7184 8.49901 18.7104 8.48083 18.7013ZM9.75431 19.3882L9.75435 19.3882L9.75431 19.3882ZM16.4424 23.468C16.4424 23.4681 16.4423 23.4682 16.4423 23.4682L16.5 23.4827C16.5638 23.2274 16.5243 22.9625 16.3887 22.7366L16.3611 22.7531L16.4424 23.468ZM16.0202 24.0373L16.0509 24.0885L16.0202 24.0373ZM12.7786 23.8231C12.7786 23.8231 12.7786 23.8231 12.7785 23.8231L12.7786 23.8231Z" fill="#4CAF4F" stroke="#4CAF4F" stroke-width="0.928093"/>
<mask id="path-4-inside-2_211_2338" fill="white">
<path d="M27.8812 25.8226C27.3979 26.6287 26.6031 27.1803 25.6429 27.3765C24.6912 27.5705 23.6904 27.3916 22.8242 26.8722L18.1835 24.0883C17.9577 23.9528 17.7979 23.7377 17.734 23.4821C17.6705 23.2271 17.7102 22.9623 17.8455 22.7366C17.9299 22.5956 18.0483 22.4844 18.1856 22.4022L18.1843 22.4014C17.9585 22.266 17.7988 22.0508 17.7351 21.7956C17.6712 21.5405 17.7109 21.2754 17.8463 21.0495C17.9336 20.9043 18.0531 20.7909 18.1896 20.7103C17.9915 20.5741 17.8488 20.3761 17.7901 20.1413C17.7261 19.8859 17.7658 19.6211 17.9013 19.3954C18.0366 19.1696 18.2519 19.01 18.5071 18.9463C18.5868 18.9262 18.6676 18.9164 18.7476 18.9164C18.9047 18.9166 19.0589 18.9564 19.2006 19.0305C19.2093 18.847 19.2639 18.6668 19.3711 18.5122C19.6652 18.0879 20.2542 17.9705 20.7131 18.2458L24.5133 20.5253L24.0235 19.643C23.8355 19.3062 23.8424 18.8906 24.0417 18.5584C24.1387 18.3967 24.2775 18.2624 24.4433 18.1694C24.5796 18.094 24.7272 18.0582 24.8728 18.0582C25.1855 18.0584 25.4892 18.2233 25.6509 18.5154C26.2144 19.5307 27.2777 21.4455 27.3525 21.5792C27.3684 21.6023 27.4164 21.6712 27.4576 21.7297C27.4968 21.7853 27.5391 21.8384 27.5829 21.8912C28.5318 23.0415 28.6462 24.5477 27.8812 25.8227L27.8812 25.8226ZM27.1789 22.225C27.1267 22.1619 27.0755 22.0974 27.029 22.031C26.8873 21.8299 26.8837 21.8247 26.873 21.772C26.7074 21.498 26.3033 20.7706 25.1926 18.7695C25.0952 18.5938 24.8738 18.5297 24.6975 18.6271C24.6107 18.6757 24.541 18.7434 24.4902 18.8282C24.3872 18.9999 24.3833 19.2144 24.4805 19.3886L25.4445 21.1254C25.502 21.2291 25.4829 21.3583 25.3977 21.4406C25.3128 21.5231 25.1829 21.5375 25.0809 21.4768L20.4436 18.6949C20.225 18.5638 19.9368 18.6152 19.8017 18.8103C19.724 18.9225 19.6992 19.0563 19.7317 19.187C19.7615 19.3064 19.8365 19.4071 19.9426 19.4707C19.9429 19.4709 19.9431 19.4712 19.9434 19.4714L22.9755 21.2904C23.0994 21.3648 23.1396 21.5255 23.0652 21.6497C22.9907 21.7735 22.8302 21.814 22.7059 21.7394L18.9834 19.5063C18.8778 19.443 18.7535 19.4243 18.6341 19.4543C18.5144 19.4842 18.4137 19.559 18.3502 19.6651C18.2866 19.7708 18.2682 19.895 18.2977 20.0144C18.3276 20.1337 18.4025 20.2346 18.5085 20.2982L19.2328 20.7327L22.2308 22.5313C22.3547 22.6058 22.3949 22.7665 22.3205 22.8906C22.246 23.0145 22.0855 23.0548 21.9612 22.9803L18.9285 21.1608C18.7104 21.0296 18.4263 21.1008 18.2951 21.3193C18.2315 21.4252 18.2131 21.5493 18.2426 21.6687C18.2725 21.7881 18.3474 21.8888 18.4535 21.9526L19.1971 22.3987L21.4862 23.7721C21.6102 23.8465 21.6504 24.0073 21.5759 24.1314C21.5015 24.2552 21.3409 24.2959 21.2166 24.2211L18.9275 22.8477C18.8219 22.7844 18.6981 22.7657 18.578 22.7957C18.4586 22.8255 18.3576 22.9003 18.2941 23.0061C18.2307 23.112 18.2121 23.2363 18.2417 23.3555C18.2715 23.4749 18.3465 23.5756 18.4526 23.6394L23.0933 26.4233C23.8463 26.8751 24.7148 27.0316 25.5377 26.8636C26.3521 26.6974 27.0248 26.2321 27.4319 25.5535C28.0896 24.4577 27.995 23.2133 27.1791 22.225L27.1789 22.225Z"/>
</mask>
<path d="M27.8812 25.8226C27.3979 26.6287 26.6031 27.1803 25.6429 27.3765C24.6912 27.5705 23.6904 27.3916 22.8242 26.8722L18.1835 24.0883C17.9577 23.9528 17.7979 23.7377 17.734 23.4821C17.6705 23.2271 17.7102 22.9623 17.8455 22.7366C17.9299 22.5956 18.0483 22.4844 18.1856 22.4022L18.1843 22.4014C17.9585 22.266 17.7988 22.0508 17.7351 21.7956C17.6712 21.5405 17.7109 21.2754 17.8463 21.0495C17.9336 20.9043 18.0531 20.7909 18.1896 20.7103C17.9915 20.5741 17.8488 20.3761 17.7901 20.1413C17.7261 19.8859 17.7658 19.6211 17.9013 19.3954C18.0366 19.1696 18.2519 19.01 18.5071 18.9463C18.5868 18.9262 18.6676 18.9164 18.7476 18.9164C18.9047 18.9166 19.0589 18.9564 19.2006 19.0305C19.2093 18.847 19.2639 18.6668 19.3711 18.5122C19.6652 18.0879 20.2542 17.9705 20.7131 18.2458L24.5133 20.5253L24.0235 19.643C23.8355 19.3062 23.8424 18.8906 24.0417 18.5584C24.1387 18.3967 24.2775 18.2624 24.4433 18.1694C24.5796 18.094 24.7272 18.0582 24.8728 18.0582C25.1855 18.0584 25.4892 18.2233 25.6509 18.5154C26.2144 19.5307 27.2777 21.4455 27.3525 21.5792C27.3684 21.6023 27.4164 21.6712 27.4576 21.7297C27.4968 21.7853 27.5391 21.8384 27.5829 21.8912C28.5318 23.0415 28.6462 24.5477 27.8812 25.8227L27.8812 25.8226ZM27.1789 22.225C27.1267 22.1619 27.0755 22.0974 27.029 22.031C26.8873 21.8299 26.8837 21.8247 26.873 21.772C26.7074 21.498 26.3033 20.7706 25.1926 18.7695C25.0952 18.5938 24.8738 18.5297 24.6975 18.6271C24.6107 18.6757 24.541 18.7434 24.4902 18.8282C24.3872 18.9999 24.3833 19.2144 24.4805 19.3886L25.4445 21.1254C25.502 21.2291 25.4829 21.3583 25.3977 21.4406C25.3128 21.5231 25.1829 21.5375 25.0809 21.4768L20.4436 18.6949C20.225 18.5638 19.9368 18.6152 19.8017 18.8103C19.724 18.9225 19.6992 19.0563 19.7317 19.187C19.7615 19.3064 19.8365 19.4071 19.9426 19.4707C19.9429 19.4709 19.9431 19.4712 19.9434 19.4714L22.9755 21.2904C23.0994 21.3648 23.1396 21.5255 23.0652 21.6497C22.9907 21.7735 22.8302 21.814 22.7059 21.7394L18.9834 19.5063C18.8778 19.443 18.7535 19.4243 18.6341 19.4543C18.5144 19.4842 18.4137 19.559 18.3502 19.6651C18.2866 19.7708 18.2682 19.895 18.2977 20.0144C18.3276 20.1337 18.4025 20.2346 18.5085 20.2982L19.2328 20.7327L22.2308 22.5313C22.3547 22.6058 22.3949 22.7665 22.3205 22.8906C22.246 23.0145 22.0855 23.0548 21.9612 22.9803L18.9285 21.1608C18.7104 21.0296 18.4263 21.1008 18.2951 21.3193C18.2315 21.4252 18.2131 21.5493 18.2426 21.6687C18.2725 21.7881 18.3474 21.8888 18.4535 21.9526L19.1971 22.3987L21.4862 23.7721C21.6102 23.8465 21.6504 24.0073 21.5759 24.1314C21.5015 24.2552 21.3409 24.2959 21.2166 24.2211L18.9275 22.8477C18.8219 22.7844 18.6981 22.7657 18.578 22.7957C18.4586 22.8255 18.3576 22.9003 18.2941 23.0061C18.2307 23.112 18.2121 23.2363 18.2417 23.3555C18.2715 23.4749 18.3465 23.5756 18.4526 23.6394L23.0933 26.4233C23.8463 26.8751 24.7148 27.0316 25.5377 26.8636C26.3521 26.6974 27.0248 26.2321 27.4319 25.5535C28.0896 24.4577 27.995 23.2133 27.1791 22.225L27.1789 22.225Z" fill="#4CAF4F"/>
<path d="M27.8812 25.8226L27.5817 24.9442L29.9804 24.1265L28.6772 26.2999L27.8812 25.8226ZM25.6429 27.3765L25.8286 28.2858L25.8283 28.2859L25.6429 27.3765ZM22.8242 26.8722L22.3469 27.6682L22.3467 27.6681L22.8242 26.8722ZM18.1835 24.0883L18.6609 23.2924L18.6609 23.2924L18.1835 24.0883ZM17.734 23.4821L16.8337 23.7075L16.8334 23.7063L17.734 23.4821ZM17.8455 22.7366L18.6417 23.2134L18.6415 23.2139L17.8455 22.7366ZM18.1856 22.4022L18.6775 21.6152L19.9641 22.4194L18.6623 23.1986L18.1856 22.4022ZM18.1843 22.4014L18.6617 21.6055L18.669 21.6099L18.6762 21.6144L18.1843 22.4014ZM17.7351 21.7956L18.6354 21.57L18.6357 21.5711L17.7351 21.7956ZM17.8463 21.0495L17.0503 20.5723L17.0509 20.5713L17.8463 21.0495ZM18.1896 20.7103L18.7156 19.9457L19.9142 20.7702L18.6612 21.5096L18.1896 20.7103ZM17.7901 20.1413L18.6904 19.9158L18.6905 19.9162L17.7901 20.1413ZM17.9013 19.3954L18.6974 19.8724L18.697 19.8731L17.9013 19.3954ZM18.5071 18.9463L18.733 19.8464L18.7321 19.8466L18.5071 18.9463ZM18.7476 18.9164V17.9883L18.7486 17.9883L18.7476 18.9164ZM19.2006 19.0305L20.1276 19.0745L20.0588 20.527L18.7703 19.8529L19.2006 19.0305ZM19.3711 18.5122L20.1339 19.0408L20.1338 19.041L19.3711 18.5122ZM20.7131 18.2458L20.2357 19.0417L20.2356 19.0417L20.7131 18.2458ZM24.5133 20.5253L25.3247 20.0748L27.0058 23.1026L24.0359 21.3212L24.5133 20.5253ZM24.0235 19.643L24.8339 19.1908L24.8349 19.1925L24.0235 19.643ZM24.0417 18.5584L23.2457 18.0811L23.246 18.0806L24.0417 18.5584ZM24.4433 18.1694L23.9893 17.3599L23.9938 17.3574L24.4433 18.1694ZM24.8728 18.0582V17.1301L24.8732 17.1301L24.8728 18.0582ZM25.6509 18.5154L24.8394 18.9658L24.8389 18.9649L25.6509 18.5154ZM27.3525 21.5792L26.5878 22.1052L26.5635 22.0698L26.5425 22.0322L27.3525 21.5792ZM27.4576 21.7297L26.6991 22.2645L26.6984 22.2635L27.4576 21.7297ZM27.5829 21.8912L28.2973 21.2988L28.2988 21.3006L27.5829 21.8912ZM27.8812 25.8227L28.1807 26.7011L25.7808 27.5192L27.0854 25.3451L27.8812 25.8227ZM27.1789 22.225L27.2708 23.1485L26.7784 23.1975L26.4633 22.816L27.1789 22.225ZM27.029 22.031L27.7876 21.4964L27.7888 21.4981L27.029 22.031ZM26.873 21.772L27.6673 21.292L27.7507 21.4299L27.7826 21.5878L26.873 21.772ZM25.1926 18.7695L24.3811 19.2199L24.381 19.2196L25.1926 18.7695ZM24.6975 18.6271L24.2443 17.8172L24.2486 17.8148L24.6975 18.6271ZM24.4902 18.8282L25.2862 19.3054L25.2861 19.3056L24.4902 18.8282ZM24.4805 19.3886L25.2909 18.9361L25.292 18.9382L24.4805 19.3886ZM25.4445 21.1254L24.6331 21.576L24.633 21.5758L25.4445 21.1254ZM25.3977 21.4406L24.7512 20.7748L24.7525 20.7735L25.3977 21.4406ZM25.0809 21.4768L24.6064 22.2745L24.6035 22.2727L25.0809 21.4768ZM20.4436 18.6949L20.9207 17.8988L20.921 17.899L20.4436 18.6949ZM19.8017 18.8103L20.5647 19.3387L20.5645 19.3389L19.8017 18.8103ZM19.7317 19.187L18.8313 19.4121L18.831 19.4108L19.7317 19.187ZM19.9426 19.4707L19.5274 20.3008L19.4957 20.2849L19.4653 20.2667L19.9426 19.4707ZM19.9434 19.4714L20.3585 18.6413L20.3903 18.6572L20.4208 18.6755L19.9434 19.4714ZM22.9755 21.2904L23.4529 20.4945L23.4533 20.4947L22.9755 21.2904ZM23.0652 21.6497L23.8611 22.127L23.8605 22.1279L23.0652 21.6497ZM22.7059 21.7394L23.1833 20.9435L23.1835 20.9436L22.7059 21.7394ZM18.9834 19.5063L19.4605 18.7103L19.4608 18.7104L18.9834 19.5063ZM18.6341 19.4543L18.8603 20.3544L18.8586 20.3548L18.6341 19.4543ZM18.3502 19.6651L19.1467 20.1415L19.1455 20.1435L18.3502 19.6651ZM18.2977 20.0144L17.3974 20.2394L17.3968 20.2371L18.2977 20.0144ZM18.5085 20.2982L18.0311 21.0941L18.0306 21.0938L18.5085 20.2982ZM19.2328 20.7327L19.7102 19.9367L19.7103 19.9368L19.2328 20.7327ZM22.2308 22.5313L22.7083 21.7355L22.7086 21.7357L22.2308 22.5313ZM22.3205 22.8906L23.1164 23.368L23.1158 23.3689L22.3205 22.8906ZM21.9612 22.9803L21.4843 23.7765L21.4837 23.7762L21.9612 22.9803ZM18.9285 21.1608L18.451 21.9567L18.4501 21.9561L18.9285 21.1608ZM18.2951 21.3193L19.0907 21.7971L19.0907 21.7971L18.2951 21.3193ZM18.2426 21.6687L17.3423 21.8938L17.3417 21.8915L18.2426 21.6687ZM18.4535 21.9526L17.9761 22.7485L17.9753 22.748L18.4535 21.9526ZM19.1971 22.3987L19.6745 21.6028L19.6746 21.6028L19.1971 22.3987ZM21.4862 23.7721L21.9637 22.9763L21.964 22.9764L21.4862 23.7721ZM21.5759 24.1314L22.3719 24.6088L22.3713 24.6097L21.5759 24.1314ZM21.2166 24.2211L21.6941 23.4253L21.6951 23.4258L21.2166 24.2211ZM18.9275 22.8477L19.4046 22.0516L19.405 22.0518L18.9275 22.8477ZM18.578 22.7957L18.3529 21.8953L18.3529 21.8953L18.578 22.7957ZM18.2941 23.0061L17.498 22.5291L17.4983 22.5286L18.2941 23.0061ZM18.2417 23.3555L17.3413 23.5806L17.3408 23.5786L18.2417 23.3555ZM18.4526 23.6394L17.9751 24.4353L17.9743 24.4348L18.4526 23.6394ZM23.0933 26.4233L23.5707 25.6275L23.5707 25.6275L23.0933 26.4233ZM25.5377 26.8636L25.7234 27.773L25.7233 27.773L25.5377 26.8636ZM27.4319 25.5535L26.6359 25.0761L26.6361 25.0759L27.4319 25.5535ZM27.1791 22.225L27.0872 21.3014L27.5798 21.2524L27.8949 21.6341L27.1791 22.225ZM28.6772 26.2999C28.0537 27.3398 27.0314 28.0401 25.8286 28.2858L25.4571 26.4672C26.1748 26.3206 26.7422 25.9175 27.0852 25.3454L28.6772 26.2999ZM25.8283 28.2859C24.6397 28.5282 23.4035 28.3017 22.3469 27.6682L23.3014 26.0762C23.9773 26.4815 24.7428 26.6128 25.4575 26.4671L25.8283 28.2859ZM22.3467 27.6681L17.706 24.8841L18.6609 23.2924L23.3016 26.0763L22.3467 27.6681ZM17.7061 24.8842C17.2696 24.6224 16.9575 24.2022 16.8337 23.7075L18.6343 23.2568C18.6368 23.2669 18.6403 23.2731 18.6434 23.2773C18.6466 23.2815 18.6517 23.2869 18.6609 23.2924L17.7061 24.8842ZM16.8334 23.7063C16.7104 23.2123 16.7882 22.6952 17.0495 22.2594L18.6415 23.2139C18.6359 23.2231 18.6339 23.2304 18.6331 23.2357C18.6323 23.2411 18.6322 23.2482 18.6346 23.258L16.8334 23.7063ZM17.0492 22.2598C17.2213 21.9724 17.4565 21.757 17.709 21.6059L18.6623 23.1986C18.651 23.2054 18.645 23.2106 18.6425 23.213C18.6404 23.2151 18.6407 23.2152 18.6417 23.2134L17.0492 22.2598ZM17.6937 23.1893L17.6924 23.1884L18.6762 21.6144L18.6775 21.6152L17.6937 23.1893ZM17.7069 23.1973C17.2706 22.9356 16.9581 22.5154 16.8346 22.0201L18.6357 21.5711C18.638 21.5805 18.6413 21.5865 18.6443 21.5905C18.6474 21.5946 18.6525 21.6 18.6617 21.6055L17.7069 23.1973ZM16.8349 22.0213C16.7108 21.5261 16.7889 21.0084 17.0503 20.5723L18.6423 21.5267C18.6367 21.5361 18.6346 21.5434 18.6339 21.5485C18.6331 21.5537 18.633 21.5605 18.6354 21.57L16.8349 22.0213ZM17.0509 20.5713C17.2222 20.2863 17.4563 20.0654 17.7179 19.911L18.6612 21.5096C18.6552 21.5132 18.6511 21.5165 18.6484 21.5192C18.6459 21.5217 18.6438 21.5243 18.6418 21.5276L17.0509 20.5713ZM17.6636 21.475C17.2887 21.2171 17.006 20.8317 16.8897 20.3664L18.6905 19.9162C18.6916 19.9206 18.693 19.9237 18.6954 19.9271C18.698 19.9308 18.7038 19.9376 18.7156 19.9457L17.6636 21.475ZM16.8898 20.3668C16.7658 19.8717 16.8437 19.354 17.1055 18.9178L18.697 19.8731C18.6915 19.8823 18.6895 19.8893 18.6888 19.8942C18.6881 19.8992 18.6879 19.906 18.6904 19.9158L16.8898 20.3668ZM17.1051 18.9184C17.3671 18.4812 17.7879 18.1694 18.282 18.0459L18.7321 19.8466C18.7222 19.8491 18.716 19.8526 18.7119 19.8556C18.7078 19.8587 18.7027 19.8636 18.6974 19.8724L17.1051 18.9184ZM18.2811 18.0461C18.4348 18.0075 18.5916 17.9883 18.7476 17.9883V19.8445C18.7436 19.8445 18.7387 19.845 18.733 19.8464L18.2811 18.0461ZM18.7486 17.9883C19.0639 17.9886 19.3645 18.0689 19.6308 18.2082L18.7703 19.8529C18.7615 19.8483 18.7552 19.8462 18.7517 19.8453C18.7483 19.8445 18.7468 19.8445 18.7467 19.8445L18.7486 17.9883ZM18.2735 18.9866C18.2895 18.6491 18.3913 18.2965 18.6085 17.9833L20.1338 19.041C20.1365 19.0371 20.129 19.045 20.1276 19.0745L18.2735 18.9866ZM18.6083 17.9835C19.1962 17.1353 20.3359 16.9372 21.1906 17.45L20.2356 19.0417C20.2085 19.0254 20.182 19.0228 20.1612 19.0269C20.1409 19.031 20.1353 19.0389 20.1339 19.0408L18.6083 17.9835ZM21.1905 17.4499L24.9907 19.7294L24.0359 21.3212L20.2357 19.0417L21.1905 17.4499ZM23.7019 20.9758L23.212 20.0935L24.8349 19.1925L25.3247 20.0748L23.7019 20.9758ZM23.213 20.0952C22.8624 19.4669 22.8764 18.6969 23.2457 18.0811L24.8376 19.0357C24.8084 19.0844 24.8086 19.1455 24.8339 19.1908L23.213 20.0952ZM23.246 18.0806C23.427 17.7792 23.6841 17.5311 23.9893 17.3599L24.8973 18.9789C24.8709 18.9937 24.8505 19.0142 24.8374 19.0361L23.246 18.0806ZM23.9938 17.3574C24.2715 17.2037 24.5744 17.1301 24.8728 17.1301V18.9863C24.876 18.9863 24.8796 18.9859 24.8835 18.9849C24.8876 18.9839 24.8908 18.9825 24.8928 18.9814L23.9938 17.3574ZM24.8732 17.1301C25.5075 17.1304 26.1303 17.465 26.4629 18.066L24.8389 18.9649C24.8404 18.9675 24.8428 18.971 24.8462 18.9744C24.8495 18.9777 24.8528 18.9802 24.8558 18.9819C24.861 18.9849 24.8663 18.9863 24.8723 18.9863L24.8732 17.1301ZM26.4624 18.0651C27.0265 19.0816 28.0887 20.9942 28.1625 21.1261L26.5425 22.0322C26.4667 21.8968 25.4022 19.9799 24.8394 18.9658L26.4624 18.0651ZM28.1171 21.0531C28.1302 21.0722 28.176 21.1379 28.2168 21.1959L26.6984 22.2635C26.6568 22.2044 26.6065 22.1324 26.5878 22.1052L28.1171 21.0531ZM28.2161 21.1949C28.2353 21.2221 28.2604 21.2543 28.2973 21.2989L26.8684 22.4836C26.8178 22.4226 26.7583 22.3485 26.6991 22.2645L28.2161 21.1949ZM28.2988 21.3006C29.4967 22.7528 29.6451 24.6868 28.677 26.3002L27.0854 25.3451C27.6473 24.4087 27.5668 23.3302 26.867 22.4818L28.2988 21.3006ZM27.5817 24.9442L27.5817 24.9442L28.1807 26.7011L28.1807 26.7011L27.5817 24.9442ZM26.4633 22.816C26.4046 22.745 26.3359 22.6592 26.2691 22.5639L27.7888 21.4981C27.8151 21.5356 27.8488 21.5787 27.8944 21.6339L26.4633 22.816ZM26.2703 22.5656C26.2119 22.4827 26.1491 22.3947 26.1074 22.3257C26.0795 22.2795 26.0422 22.2121 26.0107 22.1262C25.98 22.0426 25.9664 21.971 25.9634 21.9562L27.7826 21.5878C27.785 21.5994 27.7758 21.5482 27.7532 21.4866C27.7298 21.4228 27.7042 21.3792 27.6963 21.366C27.6925 21.3598 27.6911 21.3578 27.694 21.3622C27.6968 21.3664 27.7017 21.3737 27.71 21.3858C27.7274 21.4108 27.7512 21.4446 27.7876 21.4964L26.2703 22.5656ZM26.0787 22.2521C25.9014 21.9588 25.4841 21.207 24.3811 19.2199L26.0041 18.3191C27.1225 20.3341 27.5133 21.0373 27.6673 21.292L26.0787 22.2521ZM24.381 19.2196C24.5312 19.4906 24.8734 19.5903 25.1464 19.4395L24.2486 17.8148C24.8742 17.4691 25.6591 17.6971 26.0042 18.3193L24.381 19.2196ZM25.1507 19.4371C25.2052 19.4065 25.2537 19.3596 25.2862 19.3054L23.6942 18.3509C23.8284 18.1272 24.0163 17.9448 24.2443 17.8172L25.1507 19.4371ZM25.2861 19.3056C25.3526 19.1948 25.3571 19.0547 25.2909 18.9361L23.6702 19.841C23.4095 19.3741 23.4219 18.805 23.6943 18.3508L25.2861 19.3056ZM25.292 18.9382L26.256 20.675L24.633 21.5758L23.669 19.8389L25.292 18.9382ZM26.2558 20.6748C26.5171 21.1453 26.4304 21.733 26.043 22.1077L24.7525 20.7735C24.5354 20.9835 24.4869 21.3128 24.6331 21.576L26.2558 20.6748ZM26.0443 22.1064C25.6538 22.4856 25.0635 22.5464 24.6064 22.2745L25.5554 20.6792C25.3024 20.5287 24.9718 20.5606 24.7512 20.7748L26.0443 22.1064ZM24.6035 22.2727L19.9661 19.4907L20.921 17.899L25.5584 20.681L24.6035 22.2727ZM19.9664 19.4909C20.057 19.5452 20.1592 19.561 20.2552 19.5438C20.3511 19.5266 20.4749 19.4684 20.5647 19.3387L19.0387 18.2819C19.4854 17.6368 20.3348 17.5476 20.9207 17.8988L19.9664 19.4909ZM20.5645 19.3389C20.637 19.2344 20.665 19.0946 20.6324 18.9633L18.831 19.4108C18.7334 19.018 18.811 18.6106 19.0389 18.2817L20.5645 19.3389ZM20.6321 18.9619C20.6017 18.8404 20.5231 18.7367 20.4199 18.6748L19.4653 20.2667C19.1498 20.0775 18.9214 19.7724 18.8313 19.4121L20.6321 18.9619ZM20.3577 18.6406C20.4416 18.6826 20.5032 18.7293 20.5423 18.7624C20.5615 18.7786 20.5763 18.7925 20.5853 18.8011C20.5899 18.8055 20.5935 18.8091 20.5957 18.8113C20.5969 18.8124 20.5978 18.8133 20.5983 18.8139C20.5986 18.8141 20.5988 18.8144 20.599 18.8145C20.5991 18.8146 20.5991 18.8146 20.5992 18.8147C20.5992 18.8147 20.5992 18.8147 20.5992 18.8147C20.5992 18.8147 20.5992 18.8147 20.5992 18.8147C20.5992 18.8147 20.5992 18.8147 20.5992 18.8147C20.5995 18.815 20.5978 18.8133 20.5958 18.8114C20.5937 18.8092 20.59 18.8057 20.5855 18.8013C20.5766 18.7928 20.5618 18.7789 20.5427 18.7627C20.5038 18.7298 20.4422 18.6831 20.3585 18.6413L19.5283 20.3014C19.4444 20.2595 19.3827 20.2128 19.3437 20.1797C19.3245 20.1635 19.3096 20.1495 19.3007 20.1409C19.2961 20.1366 19.2924 20.133 19.2902 20.1308C19.2891 20.1297 19.2882 20.1288 19.2876 20.1282C19.2874 20.1279 19.2871 20.1277 19.287 20.1276C19.2869 20.1275 19.2869 20.1274 19.2868 20.1274C19.2868 20.1274 19.2868 20.1274 19.2868 20.1274C19.2868 20.1273 19.2868 20.1273 19.2868 20.1273C19.2868 20.1273 19.2868 20.1273 19.2868 20.1273C19.2865 20.127 19.2882 20.1287 19.2901 20.1307C19.2923 20.1329 19.2959 20.1364 19.3005 20.1408C19.3094 20.1493 19.3242 20.1632 19.3433 20.1794C19.3822 20.2123 19.4438 20.2589 19.5274 20.3008L20.3577 18.6406ZM20.4208 18.6755L23.4529 20.4945L22.498 22.0862L19.4659 20.2672L20.4208 18.6755ZM23.4533 20.4947C24.0167 20.833 24.199 21.5637 23.8611 22.127L22.2693 21.1723C22.0803 21.4874 22.1822 21.8966 22.4977 22.086L23.4533 20.4947ZM23.8605 22.1279C23.523 22.6892 22.7933 22.8743 22.2282 22.5351L23.1835 20.9436C22.867 20.7537 22.4584 20.8577 22.2698 21.1714L23.8605 22.1279ZM22.2284 22.5352L18.506 20.3022L19.4608 18.7104L23.1833 20.9435L22.2284 22.5352ZM18.5063 20.3024C18.6105 20.3648 18.7391 20.3849 18.8603 20.3544L18.4078 18.5542C18.7679 18.4637 19.1451 18.5212 19.4605 18.7103L18.5063 20.3024ZM18.8586 20.3548C18.9791 20.3248 19.0839 20.2465 19.1467 20.1415L17.5537 19.1886C17.7435 18.8714 18.0496 18.6435 18.4096 18.5538L18.8586 20.3548ZM19.1455 20.1435C19.2092 20.0375 19.2278 19.9093 19.1987 19.7916L17.3968 20.2371C17.3086 19.8806 17.3639 19.5041 17.5549 19.1866L19.1455 20.1435ZM19.1981 19.7893C19.1679 19.6684 19.0898 19.5648 18.9863 19.5026L18.0306 21.0938C17.7152 20.9044 17.4873 20.5991 17.3974 20.2394L19.1981 19.7893ZM18.9858 19.5023L19.7102 19.9367L18.7555 21.5286L18.0311 21.0941L18.9858 19.5023ZM19.7103 19.9368L22.7083 21.7355L21.7533 23.3272L18.7553 21.5285L19.7103 19.9368ZM22.7086 21.7357C23.272 22.074 23.4543 22.8046 23.1164 23.368L21.5246 22.4133C21.3356 22.7284 21.4375 23.1376 21.753 23.327L22.7086 21.7357ZM23.1158 23.3689C22.7778 23.9311 22.0481 24.1143 21.4843 23.7765L22.4381 22.1842C22.1228 21.9953 21.7142 22.0978 21.5251 22.4124L23.1158 23.3689ZM21.4837 23.7762L18.451 21.9567L19.4059 20.365L22.4386 22.1845L21.4837 23.7762ZM18.4501 21.9561C18.673 22.0902 18.9588 22.0168 19.0907 21.7971L17.4995 20.8414C17.8938 20.1849 18.7478 19.9691 19.4068 20.3655L18.4501 21.9561ZM19.0907 21.7971C19.154 21.6918 19.1728 21.5639 19.1436 21.446L17.3417 21.8915C17.2535 21.5348 17.309 21.1586 17.4995 20.8414L19.0907 21.7971ZM19.143 21.4436C19.1126 21.322 19.0341 21.2187 18.9318 21.1572L17.9753 22.748C17.6608 22.5589 17.4324 22.2543 17.3423 21.8938L19.143 21.4436ZM18.931 21.1567L19.6745 21.6028L18.7196 23.1945L17.9761 22.7485L18.931 21.1567ZM19.6746 21.6028L21.9637 22.9763L21.0088 24.5679L18.7196 23.1945L19.6746 21.6028ZM21.964 22.9764C22.5274 23.3148 22.7097 24.0454 22.3719 24.6088L20.78 23.654C20.591 23.9691 20.693 24.3783 21.0084 24.5677L21.964 22.9764ZM22.3713 24.6097C22.0343 25.1701 21.3045 25.3571 20.7382 25.0164L21.6951 23.4258C21.3774 23.2347 20.9687 23.3403 20.7806 23.6531L22.3713 24.6097ZM20.7391 25.017L18.45 23.6435L19.405 22.0518L21.6941 23.4253L20.7391 25.017ZM18.4503 23.6437C18.5549 23.7064 18.6835 23.726 18.8031 23.6961L18.3529 21.8953C18.7126 21.8054 19.0889 21.8624 19.4046 22.0516L18.4503 23.6437ZM18.8031 23.6961C18.9225 23.6662 19.0268 23.5889 19.09 23.4836L17.4983 22.5286C17.6884 22.2118 17.9947 21.9848 18.3529 21.8953L18.8031 23.6961ZM19.0903 23.483C19.1527 23.3789 19.172 23.2516 19.1426 23.1325L17.3408 23.5786C17.2522 23.221 17.3087 22.8451 17.498 22.5291L19.0903 23.483ZM19.142 23.1305C19.1116 23.0088 19.0331 22.9055 18.9308 22.844L17.9743 24.4348C17.6598 24.2457 17.4314 23.9411 17.3413 23.5806L19.142 23.1305ZM18.93 22.8435L23.5707 25.6275L22.6158 27.2192L17.9751 24.4353L18.93 22.8435ZM23.5707 25.6275C24.1347 25.9659 24.7678 26.0735 25.3522 25.9543L25.7233 27.773C24.6618 27.9896 23.5579 27.7844 22.6158 27.2192L23.5707 25.6275ZM25.3521 25.9543C25.926 25.8371 26.3702 25.5191 26.6359 25.0761L28.2278 26.0309C27.6794 26.9451 26.7782 27.5576 25.7234 27.773L25.3521 25.9543ZM26.6361 25.0759C27.0907 24.3186 27.03 23.5022 26.4634 22.8158L27.8949 21.6341C28.96 22.9245 29.0886 24.5968 28.2276 26.0312L26.6361 25.0759ZM27.2711 23.1485L27.2708 23.1485L27.0869 21.3015L27.0872 21.3014L27.2711 23.1485Z" fill="#4CAF4F" mask="url(#path-4-inside-2_211_2338)"/>
</svg>
