<svg width="34" height="34" viewBox="0 0 34 34" fill="none" xmlns="http://www.w3.org/2000/svg">
<path d="M4.13269 11.6343V11.9823H4.48073H29.5392H29.8873V11.6343V10.0681C29.8873 9.28351 29.5756 8.53106 29.0208 7.97627C28.466 7.42148 27.7136 7.1098 26.929 7.1098H7.09099C6.3064 7.1098 5.55394 7.42148 4.99916 7.97627C4.44437 8.53106 4.13269 9.28351 4.13269 10.0681V11.6343ZM29.8873 13.7225V13.3744H29.5392H4.48073H4.13269V13.7225V23.6415C4.13269 24.426 4.44437 25.1785 4.99916 25.7333C5.55394 26.2881 6.3064 26.5997 7.09099 26.5997H26.929C27.7136 26.5997 28.466 26.2881 29.0208 25.7333C29.5756 25.1785 29.8873 24.426 29.8873 23.6415V13.7225ZM2.74055 10.0681C2.74055 8.91429 3.1989 7.80774 4.01476 6.99188C4.83063 6.17601 5.93718 5.71766 7.09099 5.71766H26.929C28.0828 5.71766 29.1893 6.17601 30.0052 6.99188C30.8211 7.80774 31.2794 8.91429 31.2794 10.0681V23.6415C31.2794 24.7953 30.8211 25.9018 30.0052 26.7177C29.1893 27.5335 28.0828 27.9919 26.929 27.9919H7.09099C5.93718 27.9919 4.83063 27.5335 4.01476 26.7177C3.1989 25.9018 2.74055 24.7953 2.74055 23.6415V10.0681ZM22.2305 20.3351H25.3628C25.5474 20.3351 25.7245 20.4085 25.855 20.539C25.9855 20.6695 26.0589 20.8466 26.0589 21.0312C26.0589 21.2158 25.9855 21.3929 25.855 21.5234C25.7245 21.6539 25.5474 21.7273 25.3628 21.7273H22.2305C22.0459 21.7273 21.8688 21.6539 21.7383 21.5234C21.6078 21.3929 21.5344 21.2158 21.5344 21.0312C21.5344 20.8466 21.6078 20.6695 21.7383 20.539C21.8688 20.4085 22.0459 20.3351 22.2305 20.3351Z" fill="#4CAF4F" stroke="#4CAF4F" stroke-width="0.696069"/>
</svg>
