<svg width="35" height="34" viewBox="0 0 35 34" fill="none" xmlns="http://www.w3.org/2000/svg">
<g clip-path="url(#clip0_211_2332)">
<path d="M33.1456 27.0625L33.1457 27.0626C33.2769 26.9716 33.3888 26.8554 33.4747 26.7208L33.768 26.9081L33.4747 26.7208C33.5607 26.5862 33.619 26.4358 33.6463 26.2784C33.6736 26.1211 33.6694 25.9599 33.6339 25.8042L33.9732 25.7267L33.6339 25.8042C33.5983 25.6485 33.5322 25.5014 33.4393 25.3714L33.4378 25.3693C32.1307 23.5113 30.3498 22.0374 28.2801 21.1009L27.7754 20.8725L28.2002 20.5169C29.46 19.4624 30.3642 18.0453 30.7897 16.4585C31.2153 14.8717 31.1414 13.1923 30.5782 11.6489C30.015 10.1056 28.9898 8.77337 27.6423 7.83358C26.2948 6.89379 24.6904 6.39213 23.0475 6.3969L23.0459 6.3969C22.3148 6.39568 21.5871 6.49664 20.8839 6.69683L20.8777 6.69861L20.8776 6.69855C20.7215 6.73988 20.5751 6.81187 20.447 6.91033C20.3189 7.00878 20.2116 7.13174 20.1315 7.27204C20.0514 7.41233 20 7.56717 19.9802 7.72752C19.9605 7.88788 19.9729 8.05056 20.0167 8.20608C20.0604 8.36161 20.1347 8.50687 20.2352 8.63342L19.9625 8.84979L20.2352 8.63342C20.3356 8.75997 20.4602 8.86527 20.6017 8.9432L20.4339 9.24807L20.6017 8.9432C20.7433 9.02112 20.8989 9.07012 21.0595 9.08733C21.2202 9.10453 21.3826 9.08961 21.5375 9.04343L21.5415 9.04224L21.5415 9.04226C22.0311 8.90257 22.5379 8.83218 23.0471 8.83314M33.1456 27.0625L23.0465 9.18118M33.1456 27.0625L33.1416 27.0654C32.9384 27.2107 32.6948 27.2884 32.445 27.2877C32.2497 27.2865 32.0575 27.2388 31.8842 27.1487C31.711 27.0585 31.5617 26.9285 31.4487 26.7693M33.1456 27.0625L31.1644 26.9701M23.0471 8.83314L23.0465 9.18118M23.0471 8.83314C23.0469 8.83314 23.0467 8.83314 23.0465 8.83314V9.18118M23.0471 8.83314C24.5238 8.83332 25.9399 9.41998 26.984 10.4641C28.0284 11.5084 28.615 12.9248 28.615 14.4017C28.615 15.8786 28.0284 17.295 26.984 18.3393C25.9397 19.3836 24.5234 19.9703 23.0465 19.9703C22.7234 19.9703 22.4136 20.0986 22.1851 20.327C21.9567 20.5555 21.8284 20.8653 21.8284 21.1884C21.8284 21.5114 21.9567 21.8213 22.1851 22.0497C22.4136 22.2782 22.7234 22.4065 23.0465 22.4065H23.0469C24.6943 22.4083 26.3172 22.8055 27.7793 23.5647C29.2412 24.3239 30.4996 25.4229 31.4487 26.7693M23.0465 9.18118C24.4311 9.18118 25.7589 9.73119 26.7379 10.7102C27.717 11.6893 28.267 13.0171 28.267 14.4017C28.267 15.7863 27.717 17.1141 26.7379 18.0932C25.7589 19.0722 24.4311 19.6222 23.0465 19.6222C22.6311 19.6222 22.2328 19.7872 21.939 20.0809C21.6453 20.3746 21.4803 20.773 21.4803 21.1884C21.4803 21.6037 21.6453 22.0021 21.939 22.2958C22.2328 22.5895 22.6311 22.7545 23.0465 22.7545C24.6382 22.7563 26.2063 23.1401 27.6189 23.8736C29.0315 24.6072 30.2474 25.6691 31.1644 26.9701M31.4487 26.7693C31.4485 26.7691 31.4484 26.7689 31.4483 26.7688L31.1644 26.9701M31.4487 26.7693C31.4487 26.7694 31.4488 26.7695 31.4489 26.7696L31.1644 26.9701M17.5628 20.5175L17.14 20.8731L17.6433 21.1009C19.7129 22.0374 21.4939 23.5113 22.801 25.3693L22.806 25.3764L22.8113 25.3832C22.9128 25.5133 22.9869 25.6626 23.0289 25.8222C23.071 25.9818 23.0802 26.1482 23.056 26.3115C23.0318 26.4747 22.9746 26.6313 22.8881 26.7718C22.8015 26.9123 22.6873 27.0337 22.5523 27.1287C22.4174 27.2237 22.2646 27.2903 22.1031 27.3245C21.9417 27.3586 21.775 27.3596 21.6131 27.3274C21.4513 27.2951 21.2977 27.2303 21.1616 27.1369C21.0256 27.0435 20.9099 26.9235 20.8217 26.784L20.8172 26.777L20.8124 26.7701C19.8653 25.4211 18.6072 24.3199 17.1447 23.5598C15.6821 22.7996 14.058 22.4027 12.4097 22.4027C10.7613 22.4027 9.13725 22.7996 7.67468 23.5598C6.21212 24.3199 4.95408 25.4211 4.00692 26.7701L4.00614 26.7712C3.8948 26.9311 3.74634 27.0616 3.5735 27.1516C3.40066 27.2415 3.20858 27.2882 3.01373 27.2877L3.0116 27.2877C2.7617 27.2885 2.51787 27.2108 2.31457 27.0654L2.3129 27.0643C2.04938 26.8782 1.87041 26.5953 1.81522 26.2775C1.76005 25.9598 1.8331 25.6332 2.01835 25.3693C3.32545 23.5113 5.1064 22.0374 7.17602 21.1009L7.67933 20.8731L7.25658 20.5175C6.00015 19.4605 5.09913 18.0427 4.67568 16.4564C4.25222 14.8701 4.32681 13.1919 4.88934 11.6494C5.45187 10.1069 6.47512 8.77463 7.82036 7.83331C9.16561 6.89198 10.7678 6.3871 12.4097 6.3871C14.0516 6.3871 15.6537 6.89198 16.999 7.83331C18.3442 8.77463 19.3675 10.1069 19.93 11.6494C20.4925 13.1919 20.5671 14.8701 20.1437 16.4564C19.7202 18.0427 18.8192 19.4605 17.5628 20.5175ZM7.77958 11.308C7.1677 12.2237 6.84111 13.3003 6.84111 14.4017C6.84111 15.8786 7.4278 17.295 8.47211 18.3393C9.51641 19.3836 10.9328 19.9703 12.4097 19.9703C13.511 19.9703 14.5876 19.6437 15.5034 19.0318C16.4191 18.4199 17.1329 17.5502 17.5543 16.5327C17.9758 15.5152 18.0861 14.3955 17.8712 13.3153C17.6564 12.2351 17.126 11.2429 16.3472 10.4641C15.5685 9.68536 14.5762 9.155 13.496 8.94014C12.4158 8.72528 11.2962 8.83555 10.2787 9.25702C9.26115 9.67849 8.39146 10.3922 7.77958 11.308Z" fill="#4CAF4F" stroke="#4CAF4F" stroke-width="0.696069"/>
</g>
<defs>
<clipPath id="clip0_211_2332">
<rect width="33.4113" height="33.4113" fill="white" transform="translate(0.924561 0.306274)"/>
</clipPath>
</defs>
</svg>
